solid auto-kdk-case
facet normal 0.7108399732492292 0.7033537747329114 0
outer loop
vertex 91.19996643066406 -23.872356414794922 -15.963006019592285
vertex 92.64576721191406 -25.333545684814453 0
vertex 92.64576721191406 -25.333545684814453 -16.12432289123535
endloop
endfacet
facet normal -1.988510941480161e-9 0.10973426424055756 -0.9939609606275206
outer loop
vertex 23.553592681884766 -58.697269439697266 -19.80771255493164
vertex -88.41600036621094 -58.172306060791016 -19.749755859375
vertex -90.8587646484375 -55.521305084228516 -19.457082748413086
endloop
endfacet
facet normal -1.0891134394639942e-8 0.10973394739036346 -0.9939609956080413
outer loop
vertex 23.553592681884766 -58.697269439697266 -19.80771255493164
vertex -90.8587646484375 -55.521305084228516 -19.457082748413086
vertex -91.20133209228516 -54.64042282104492 -19.359832763671875
endloop
endfacet
facet normal 2.112004445172131e-9 0.10973431077754668 -0.9939609554897904
outer loop
vertex 23.553592681884766 -58.697269439697266 -19.80771255493164
vertex -91.20133209228516 -54.64042282104492 -19.359832763671875
vertex -91.0920181274414 -15.038947105407715 -14.987789154052734
endloop
endfacet
facet normal -0.40190963430951754 -0.9156793357115743 0
outer loop
vertex -87.45771026611328 -58.592918395996094 -19.796192169189453
vertex -88.41600036621094 -58.172306060791016 0
vertex -88.41600036621094 -58.172306060791016 -19.749755859375
endloop
endfacet
facet normal -0.7353995470709498 -0.677633755186267 0
outer loop
vertex -88.41600036621094 -58.172306060791016 -19.749755859375
vertex -90.8587646484375 -55.521305084228516 0
vertex -90.8587646484375 -55.521305084228516 -19.457082748413086
endloop
endfacet
facet normal -0.9320039140976548 -0.3624482088611438 0
outer loop
vertex -90.8587646484375 -55.521305084228516 -19.457082748413086
vertex -91.20133209228516 -54.64042282104492 0
vertex -91.20133209228516 -54.64042282104492 -19.359832763671875
endloop
endfacet
facet normal -0.0009400033584636258 -0.9999995581967456 0
outer loop
vertex -87.45771026611328 -58.592918395996094 0
vertex -87.45771026611328 -58.592918395996094 -19.796192169189453
vertex 23.553592681884766 -58.697269439697266 -19.80771255493164
endloop
endfacet
facet normal 2.273227869089092e-8 0.10973436427381335 -0.9939609495837457
outer loop
vertex 23.553592681884766 -58.697269439697266 -19.80771255493164
vertex -91.0920181274414 -15.038947105407715 -14.987789154052734
vertex -90.67149353027344 -14.083209037780762 -14.882274627685547
endloop
endfacet
facet normal 3.578992582287854e-8 0.10973439730265308 -0.9939609459373251
outer loop
vertex 23.553592681884766 -58.697269439697266 -19.80771255493164
vertex -90.67149353027344 -14.083209037780762 -14.882274627685547
vertex -88.02267456054688 -11.64245891571045 -14.612812995910645
endloop
endfacet
facet normal 1.2549475805535953e-7 0.10973460744920872 -0.9939609227368812
outer loop
vertex 23.553592681884766 -58.697269439697266 -19.80771255493164
vertex -88.02267456054688 -11.64245891571045 -14.612812995910645
vertex -87.14559936523438 -11.299979209899902 -14.575002670288086
endloop
endfacet
facet normal 0 0.10973431787814306 -0.9939609547058772
outer loop
vertex 23.553592681884766 -58.697269439697266 -19.80771255493164
vertex -87.14559936523438 -11.299979209899902 -14.575002670288086
vertex -74.66450500488281 -11.299979209899902 -14.575002670288086
endloop
endfacet
facet normal -5.699723848160913e-8 0.10973420118899412 -0.9939609675884714
outer loop
vertex 23.553592681884766 -58.697269439697266 -19.80771255493164
vertex -74.66450500488281 -11.299979209899902 -14.575002670288086
vertex -73.20003509521484 -9.8355131149292 -14.413324356079102
endloop
endfacet
facet normal -6.725028062291206e-9 0.10973429953683247 -0.9939609567307764
outer loop
vertex 23.553592681884766 -58.697269439697266 -19.80771255493164
vertex -73.20003509521484 -9.8355131149292 -14.413324356079102
vertex -73.20003509521484 -6.107354640960693 -14.001731872558594
endloop
endfacet
facet normal -3.704213705683826e-7 0.10973363847452468 -0.9939610297124355
outer loop
vertex -73.20003509521484 -6.107354640960693 -14.001731872558594
vertex -74.63551330566406 -4.648043632507324 -13.840622901916504
vertex 23.553592681884766 -58.697269439697266 -19.80771255493164
endloop
endfacet
facet normal -0.9999961902535247 0.0027603402754532635 0
outer loop
vertex -91.20133209228516 -54.64042282104492 -19.359832763671875
vertex -91.0920181274414 -15.038947105407715 0
vertex -91.0920181274414 -15.038947105407715 -14.987789154052734
endloop
endfacet
facet normal 5.801337968303844e-9 0.10973466569372399 -0.9939609163066154
outer loop
vertex -74.63551330566406 -4.648043632507324 -13.840622901916504
vertex -78.48633575439453 -4.584621429443359 -13.83362102508545
vertex -79.42285919189453 -4.164863109588623 -13.78727912902832
endloop
endfacet
facet normal -3.555644305797866e-8 0.10973426085574835 -0.9939609610012061
outer loop
vertex -74.63551330566406 -4.648043632507324 -13.840622901916504
vertex -79.42285919189453 -4.164863109588623 -13.78727912902832
vertex -81.85838317871094 -1.5217236280441284 -13.495473861694336
endloop
endfacet
facet normal 3.2529570198810576e-7 0.10973508450873999 -0.9939608700687135
outer loop
vertex -74.63551330566406 -4.648043632507324 -13.840622901916504
vertex -81.85838317871094 -1.5217236280441284 -13.495473861694336
vertex -82.20092010498047 -0.6420502662658691 -13.398356437683105
endloop
endfacet
facet normal -1.6964243429403237e-8 0.10973427285417597 -0.9939609596765684
outer loop
vertex -74.63551330566406 -4.648043632507324 -13.840622901916504
vertex 97.56993103027344 -63.69997787475586 -20.360017776489258
vertex 23.553592681884766 -58.697269439697266 -19.80771255493164
endloop
endfacet
facet normal 1.5350465756335526e-7 0.10973476398427369 -0.9939609054551855
outer loop
vertex -74.63551330566406 -4.648043632507324 -13.840622901916504
vertex -82.20092010498047 -0.6420502662658691 -13.398356437683105
vertex 97.56993103027344 -63.69997787475586 -20.360017776489258
endloop
endfacet
facet normal -1.1258485095865902e-8 0.10973429991984006 -0.993960956688492
outer loop
vertex 97.56993103027344 -63.69997787475586 -20.360017776489258
vertex -82.20092010498047 -0.6420502662658691 -13.398356437683105
vertex -82.09247589111328 56.959434509277344 -7.039093971252441
endloop
endfacet
facet normal -0.40190963430951754 -0.9156793357115743 0
outer loop
vertex -88.41600036621094 -58.172306060791016 0
vertex -87.45771026611328 -58.592918395996094 -19.796192169189453
vertex -87.45771026611328 -58.592918395996094 0
endloop
endfacet
facet normal -0.7353995470709499 -0.6776337551862671 0
outer loop
vertex -90.8587646484375 -55.521305084228516 0
vertex -88.41600036621094 -58.172306060791016 -19.749755859375
vertex -88.41600036621094 -58.172306060791016 0
endloop
endfacet
facet normal -0.9320039140976549 -0.3624482088611438 0
outer loop
vertex -91.20133209228516 -54.64042282104492 0
vertex -90.8587646484375 -55.521305084228516 -19.457082748413086
vertex -90.8587646484375 -55.521305084228516 0
endloop
endfacet
facet normal -0.9999961902535248 0.002760340275453264 0
outer loop
vertex -91.0920181274414 -15.038947105407715 0
vertex -91.20133209228516 -54.64042282104492 -19.359832763671875
vertex -91.20133209228516 -54.64042282104492 0
endloop
endfacet
facet normal 0 0 1
outer loop
vertex -88.41600036621094 -58.172306060791016 0
vertex -87.45771026611328 -58.592918395996094 0
vertex 64.19996643066406 -6.164445400238037 0
endloop
endfacet
facet normal 0 0 1
outer loop
vertex -91.20133209228516 -54.64042282104492 0
vertex -90.8587646484375 -55.521305084228516 0
vertex 64.19996643066406 -6.164445400238037 0
endloop
endfacet
facet normal 0 0 1
outer loop
vertex -90.8587646484375 -55.521305084228516 0
vertex -88.41600036621094 -58.172306060791016 0
vertex 64.19996643066406 -6.164445400238037 0
endloop
endfacet
facet normal -0.9153150862925957 0.4027384918345627 0
outer loop
vertex -91.0920181274414 -15.038947105407715 -14.987789154052734
vertex -90.67149353027344 -14.083209037780762 0
vertex -90.67149353027344 -14.083209037780762 -14.882274627685547
endloop
endfacet
facet normal -0.6776332220987527 0.7354000382839686 0
outer loop
vertex -90.67149353027344 -14.083209037780762 -14.882274627685547
vertex -88.02267456054688 -11.64245891571045 0
vertex -88.02267456054688 -11.64245891571045 -14.612812995910645
endloop
endfacet
facet normal -0.36373276948689065 0.9315033399840263 0
outer loop
vertex -88.02267456054688 -11.64245891571045 -14.612812995910645
vertex -87.14559936523438 -11.299979209899902 0
vertex -87.14559936523438 -11.299979209899902 -14.575002670288086
endloop
endfacet
facet normal 0 1 0
outer loop
vertex -87.14559936523438 -11.299979209899902 -14.575002670288086
vertex -74.66450500488281 -11.299979209899902 0
vertex -74.66450500488281 -11.299979209899902 -14.575002670288086
endloop
endfacet
facet normal -0.7353990371848788 -0.6776343085378377 0
outer loop
vertex -79.42285919189453 -4.164863109588623 -13.78727912902832
vertex -81.85838317871094 -1.5217236280441284 0
vertex -81.85838317871094 -1.5217236280441284 -13.495473861694336
endloop
endfacet
facet normal -0.40900516906115986 -0.9125320661112419 0
outer loop
vertex -78.48633575439453 -4.584621429443359 -13.83362102508545
vertex -79.42285919189453 -4.164863109588623 0
vertex -79.42285919189453 -4.164863109588623 -13.78727912902832
endloop
endfacet
facet normal -0.7071058602377603 0.7071077021341353 0
outer loop
vertex -74.66450500488281 -11.299979209899902 -14.575002670288086
vertex -73.20003509521484 -9.8355131149292 0
vertex -73.20003509521484 -9.8355131149292 -14.413324356079102
endloop
endfacet
facet normal -1 0 0
outer loop
vertex -73.20003509521484 -9.8355131149292 -14.413324356079102
vertex -73.20003509521484 -6.107354640960693 0
vertex -73.20003509521484 -6.107354640960693 -14.001731872558594
endloop
endfacet
facet normal -0.7129042301891042 -0.7012614053108019 0
outer loop
vertex -73.20003509521484 -6.107354640960693 -14.001731872558594
vertex -74.63551330566406 -4.648043632507324 0
vertex -74.63551330566406 -4.648043632507324 -13.840622901916504
endloop
endfacet
facet normal -0.01646754788215563 -0.9998644007397948 0
outer loop
vertex -74.63551330566406 -4.648043632507324 -13.840622901916504
vertex -78.48633575439453 -4.584621429443359 0
vertex -78.48633575439453 -4.584621429443359 -13.83362102508545
endloop
endfacet
facet normal -0.9153150862925957 0.4027384918345627 0
outer loop
vertex -90.67149353027344 -14.083209037780762 0
vertex -91.0920181274414 -15.038947105407715 -14.987789154052734
vertex -91.0920181274414 -15.038947105407715 0
endloop
endfacet
facet normal -0.6776332220987527 0.7354000382839687 0
outer loop
vertex -88.02267456054688 -11.64245891571045 0
vertex -90.67149353027344 -14.083209037780762 -14.882274627685547
vertex -90.67149353027344 -14.083209037780762 0
endloop
endfacet
facet normal -0.3637327694868906 0.9315033399840262 0
outer loop
vertex -87.14559936523438 -11.299979209899902 0
vertex -88.02267456054688 -11.64245891571045 -14.612812995910645
vertex -88.02267456054688 -11.64245891571045 0
endloop
endfacet
facet normal 0 1 0
outer loop
vertex -74.66450500488281 -11.299979209899902 0
vertex -87.14559936523438 -11.299979209899902 -14.575002670288086
vertex -87.14559936523438 -11.299979209899902 0
endloop
endfacet
facet normal -0.40900516906115986 -0.9125320661112419 0
outer loop
vertex -79.42285919189453 -4.164863109588623 0
vertex -78.48633575439453 -4.584621429443359 -13.83362102508545
vertex -78.48633575439453 -4.584621429443359 0
endloop
endfacet
facet normal -0.7353990371848786 -0.6776343085378377 0
outer loop
vertex -81.85838317871094 -1.5217236280441284 0
vertex -79.42285919189453 -4.164863109588623 -13.78727912902832
vertex -79.42285919189453 -4.164863109588623 0
endloop
endfacet
facet normal -0.7071058602377603 0.7071077021341352 0
outer loop
vertex -73.20003509521484 -9.8355131149292 0
vertex -74.66450500488281 -11.299979209899902 -14.575002670288086
vertex -74.66450500488281 -11.299979209899902 0
endloop
endfacet
facet normal -1 0 0
outer loop
vertex -73.20003509521484 -6.107354640960693 0
vertex -73.20003509521484 -9.8355131149292 -14.413324356079102
vertex -73.20003509521484 -9.8355131149292 0
endloop
endfacet
facet normal -0.7129042301891042 -0.7012614053108019 0
outer loop
vertex -74.63551330566406 -4.648043632507324 0
vertex -73.20003509521484 -6.107354640960693 -14.001731872558594
vertex -73.20003509521484 -6.107354640960693 0
endloop
endfacet
facet normal -0.01646754788215563 -0.9998644007397948 0
outer loop
vertex -78.48633575439453 -4.584621429443359 0
vertex -74.63551330566406 -4.648043632507324 -13.840622901916504
vertex -74.63551330566406 -4.648043632507324 0
endloop
endfacet
facet normal 0 0 1
outer loop
vertex -88.02267456054688 -11.64245891571045 0
vertex -90.67149353027344 -14.083209037780762 0
vertex -74.66450500488281 -11.299979209899902 0
endloop
endfacet
facet normal 0 0 1
outer loop
vertex -87.14559936523438 -11.299979209899902 0
vertex -88.02267456054688 -11.64245891571045 0
vertex -74.66450500488281 -11.299979209899902 0
endloop
endfacet
facet normal 0 0 1
outer loop
vertex -91.0920181274414 -15.038947105407715 0
vertex -91.20133209228516 -54.64042282104492 0
vertex 64.19996643066406 -6.164445400238037 0
endloop
endfacet
facet normal 0 0 1
outer loop
vertex -90.67149353027344 -14.083209037780762 0
vertex -91.0920181274414 -15.038947105407715 0
vertex 64.19996643066406 -6.164445400238037 0
endloop
endfacet
facet normal -0.0009400033584636257 -0.9999995581967455 0
outer loop
vertex -87.45771026611328 -58.592918395996094 0
vertex 23.553592681884766 -58.697269439697266 -19.80771255493164
vertex 23.553592681884766 -58.697269439697266 0
endloop
endfacet
facet normal 0 0 1
outer loop
vertex -87.45771026611328 -58.592918395996094 0
vertex 23.553592681884766 -58.697269439697266 0
vertex 64.19996643066406 -9.850736618041992 0
endloop
endfacet
facet normal 0 0 1
outer loop
vertex -74.66450500488281 -11.299979209899902 0
vertex -90.67149353027344 -14.083209037780762 0
vertex 65.6644287109375 -4.699979305267334 0
endloop
endfacet
facet normal 0 0 1
outer loop
vertex -73.20003509521484 -9.8355131149292 0
vertex -74.66450500488281 -11.299979209899902 0
vertex 65.6644287109375 -4.699979305267334 0
endloop
endfacet
facet normal 0 0 1
outer loop
vertex 64.19996643066406 -6.164445400238037 0
vertex -87.45771026611328 -58.592918395996094 0
vertex 64.19996643066406 -9.850736618041992 0
endloop
endfacet
facet normal 0 0 1
outer loop
vertex 65.6644287109375 -4.699979305267334 0
vertex -90.67149353027344 -14.083209037780762 0
vertex 64.19996643066406 -6.164445400238037 0
endloop
endfacet
facet normal 2.1609911087832228e-7 0.10973463437978563 -0.9939609197636937
outer loop
vertex 97.56993103027344 -63.69997787475586 -20.360017776489258
vertex -82.09247589111328 56.959434509277344 -7.039093971252441
vertex -81.67191314697266 57.916404724121094 -6.933443069458008
endloop
endfacet
facet normal -1.9402750594681154e-8 0.10973429146966329 -0.9939609576214
outer loop
vertex 97.56993103027344 -63.69997787475586 -20.360017776489258
vertex -81.67191314697266 57.916404724121094 -6.933443069458008
vertex -79.02178192138672 60.358367919921875 -6.663847923278809
endloop
endfacet
facet normal 6.76860146771833e-8 0.10973441394400481 -0.9939609441000995
outer loop
vertex 97.56993103027344 -63.69997787475586 -20.360017776489258
vertex -79.02178192138672 60.358367919921875 -6.663847923278809
vertex -78.14210510253906 60.700904846191406 -6.626031398773193
endloop
endfacet
facet normal 1.876988106145225e-8 0.10973434568360677 -0.9939609516361246
outer loop
vertex 97.56993103027344 -63.69997787475586 -20.360017776489258
vertex -78.14210510253906 60.700904846191406 -6.626031398773193
vertex -15.335570335388184 42.70001983642578 -8.613347053527832
endloop
endfacet
facet normal -0.9318465157778969 -0.3628526850287781 0
outer loop
vertex -81.85838317871094 -1.5217236280441284 -13.495473861694336
vertex -81.85838317871094 -1.5217236280441284 0
vertex -82.20092010498047 -0.6420502662658691 -13.398356437683105
endloop
endfacet
facet normal -0.9318465157778969 -0.3628526850287781 0
outer loop
vertex -82.20092010498047 -0.6420502662658691 0
vertex -82.20092010498047 -0.6420502662658691 -13.398356437683105
vertex -81.85838317871094 -1.5217236280441284 0
endloop
endfacet
facet normal -0.9999982277937535 0.0018826601797549169 0
outer loop
vertex -82.09247589111328 56.959434509277344 0
vertex -82.20092010498047 -0.6420502662658691 -13.398356437683105
vertex -82.20092010498047 -0.6420502662658691 0
endloop
endfacet
facet normal 0 0 1
outer loop
vertex -79.42285919189453 -4.164863109588623 0
vertex -78.48633575439453 -4.584621429443359 0
vertex -15.335570335388184 42.70001983642578 0
endloop
endfacet
facet normal 0 0 1
outer loop
vertex -81.85838317871094 -1.5217236280441284 0
vertex -79.42285919189453 -4.164863109588623 0
vertex -15.335570335388184 42.70001983642578 0
endloop
endfacet
facet normal 0 0 1
outer loop
vertex -82.20092010498047 -0.6420502662658691 0
vertex -81.85838317871094 -1.5217236280441284 0
vertex -15.335570335388184 42.70001983642578 0
endloop
endfacet
facet normal 0 0 1
outer loop
vertex -73.20003509521484 -6.107354640960693 0
vertex -73.20003509521484 -9.8355131149292 0
vertex -15.335570335388184 42.70001983642578 0
endloop
endfacet
facet normal 0 0 1
outer loop
vertex -15.335570335388184 42.70001983642578 0
vertex -78.48633575439453 -4.584621429443359 0
vertex -74.63551330566406 -4.648043632507324 0
endloop
endfacet
facet normal 0 0 1
outer loop
vertex -74.63551330566406 -4.648043632507324 0
vertex -73.20003509521484 -6.107354640960693 0
vertex -15.335570335388184 42.70001983642578 0
endloop
endfacet
facet normal 0 0 1
outer loop
vertex -15.335570335388184 42.70001983642578 0
vertex -16.80003547668457 44.164485931396484 0
vertex -82.20092010498047 -0.6420502662658691 0
endloop
endfacet
facet normal -0.9999982277937535 0.0018826601797549167 0
outer loop
vertex -82.20092010498047 -0.6420502662658691 -13.398356437683105
vertex -82.09247589111328 56.959434509277344 0
vertex -82.09247589111328 56.959434509277344 -7.039093971252441
endloop
endfacet
facet normal -5.5347146427591165e-8 0.10973409019730233 -0.9939609798420496
outer loop
vertex -78.14210510253906 60.700904846191406 -6.626031398773193
vertex -16.80003547668457 44.164485931396484 -8.451668739318848
vertex -15.335570335388184 42.70001983642578 -8.613347053527832
endloop
endfacet
facet normal -4.337584117775962e-10 0.10973429144635982 -0.9939609576239731
outer loop
vertex -78.14210510253906 60.700904846191406 -6.626031398773193
vertex -16.80003547668457 56.64558029174805 -7.0737433433532715
vertex -16.80003547668457 44.164485931396484 -8.451668739318848
endloop
endfacet
facet normal 4.707118565896971e-11 0.10973450790286125 -0.9939609337269333
outer loop
vertex -78.14210510253906 60.700904846191406 -6.626031398773193
vertex -20.540624618530273 60.592464447021484 -6.638003349304199
vertex -19.583654403686523 60.171897888183594 -6.684434413909912
endloop
endfacet
facet normal -3.4132473952027656e-9 0.10973424692040475 -0.9939609625396822
outer loop
vertex -78.14210510253906 60.700904846191406 -6.626031398773193
vertex -17.14251708984375 57.52265930175781 -6.976912975311279
vertex -16.80003547668457 56.64558029174805 -7.0737433433532715
endloop
endfacet
facet normal -2.114079562539745e-9 0.10973427155488287 -0.993960959820012
outer loop
vertex -78.14210510253906 60.700904846191406 -6.626031398773193
vertex -19.583654403686523 60.171897888183594 -6.684434413909912
vertex -17.14251708984375 57.52265930175781 -6.976912975311279
endloop
endfacet
facet normal 0 0 1
outer loop
vertex -82.09247589111328 56.959434509277344 0
vertex -82.20092010498047 -0.6420502662658691 0
vertex -79.02178192138672 60.358367919921875 0
endloop
endfacet
facet normal 0 0 1
outer loop
vertex -78.14210510253906 60.700904846191406 0
vertex -79.02178192138672 60.358367919921875 0
vertex -82.20092010498047 -0.6420502662658691 0
endloop
endfacet
facet normal -0.9154927345125813 0.40233450393258124 0
outer loop
vertex -82.09247589111328 56.959434509277344 -7.039093971252441
vertex -81.67191314697266 57.916404724121094 0
vertex -81.67191314697266 57.916404724121094 -6.933443069458008
endloop
endfacet
facet normal -0.6776338070252951 0.7353994993038853 0
outer loop
vertex -81.67191314697266 57.916404724121094 -6.933443069458008
vertex -79.02178192138672 60.358367919921875 0
vertex -79.02178192138672 60.358367919921875 -6.663847923278809
endloop
endfacet
facet normal -0.36285144679000336 0.9318469979360353 0
outer loop
vertex -79.02178192138672 60.358367919921875 -6.663847923278809
vertex -78.14210510253906 60.700904846191406 0
vertex -78.14210510253906 60.700904846191406 -6.626031398773193
endloop
endfacet
facet normal -0.9154927345125814 0.4023345039325813 0
outer loop
vertex -81.67191314697266 57.916404724121094 0
vertex -82.09247589111328 56.959434509277344 -7.039093971252441
vertex -82.09247589111328 56.959434509277344 0
endloop
endfacet
facet normal -0.6776338070252951 0.7353994993038852 0
outer loop
vertex -79.02178192138672 60.358367919921875 0
vertex -81.67191314697266 57.916404724121094 -6.933443069458008
vertex -81.67191314697266 57.916404724121094 0
endloop
endfacet
facet normal -0.3628514467900033 0.9318469979360352 0
outer loop
vertex -78.14210510253906 60.700904846191406 0
vertex -79.02178192138672 60.358367919921875 -6.663847923278809
vertex -79.02178192138672 60.358367919921875 0
endloop
endfacet
facet normal 0 0 1
outer loop
vertex -81.67191314697266 57.916404724121094 0
vertex -82.09247589111328 56.959434509277344 0
vertex -79.02178192138672 60.358367919921875 0
endloop
endfacet
facet normal 0 0 1
outer loop
vertex -20.540624618530273 60.592464447021484 0
vertex -78.14210510253906 60.700904846191406 0
vertex -82.20092010498047 -0.6420502662658691 0
endloop
endfacet
facet normal 0 0 1
outer loop
vertex -16.80003547668457 44.164485931396484 0
vertex -16.80003547668457 56.64558029174805 0
vertex -82.20092010498047 -0.6420502662658691 0
endloop
endfacet
facet normal 0 0 1
outer loop
vertex -82.20092010498047 -0.6420502662658691 0
vertex -17.14251708984375 57.52265930175781 0
vertex -19.583654403686523 60.171897888183594 0
endloop
endfacet
facet normal 0 0 1
outer loop
vertex -20.540624618530273 60.592464447021484 0
vertex -82.20092010498047 -0.6420502662658691 0
vertex -19.583654403686523 60.171897888183594 0
endloop
endfacet
facet normal 0 0 1
outer loop
vertex -17.14251708984375 57.52265930175781 0
vertex -82.20092010498047 -0.6420502662658691 0
vertex -16.80003547668457 56.64558029174805 0
endloop
endfacet
facet normal 0.0018825940946911167 0.9999982279181672 0
outer loop
vertex -78.14210510253906 60.700904846191406 -6.626031398773193
vertex -20.540624618530273 60.592464447021484 0
vertex -20.540624618530273 60.592464447021484 -6.638003349304199
endloop
endfacet
facet normal 0.001882594094691117 0.9999982279181673 0
outer loop
vertex -20.540624618530273 60.592464447021484 0
vertex -78.14210510253906 60.700904846191406 -6.626031398773193
vertex -78.14210510253906 60.700904846191406 0
endloop
endfacet
facet normal 0 0 1
outer loop
vertex -15.335570335388184 42.70001983642578 0
vertex -73.20003509521484 -9.8355131149292 0
vertex 24.359535217285156 42.70001983642578 0
endloop
endfacet
facet normal 0 0 1
outer loop
vertex 24.359535217285156 42.70001983642578 0
vertex -73.20003509521484 -9.8355131149292 0
vertex 65.6644287109375 -4.699979305267334 0
endloop
endfacet
facet normal 0.7071070114239317 0.7071065509490884 0
outer loop
vertex -16.80003547668457 44.164485931396484 -8.451668739318848
vertex -15.335570335388184 42.70001983642578 0
vertex -15.335570335388184 42.70001983642578 -8.613347053527832
endloop
endfacet
facet normal 1 0 0
outer loop
vertex -16.80003547668457 56.64558029174805 -7.0737433433532715
vertex -16.80003547668457 44.164485931396484 0
vertex -16.80003547668457 44.164485931396484 -8.451668739318848
endloop
endfacet
facet normal 0 1 0
outer loop
vertex -15.335570335388184 42.70001983642578 -8.613347053527832
vertex 24.359535217285156 42.70001983642578 0
vertex 24.359535217285156 42.70001983642578 -8.613347053527832
endloop
endfacet
facet normal 0.7071070114239316 0.7071065509490883 0
outer loop
vertex -16.80003547668457 44.164485931396484 -8.451668739318848
vertex -16.80003547668457 44.164485931396484 0
vertex -15.335570335388184 42.70001983642578 0
endloop
endfacet
facet normal 0.9315031896459446 0.3637331544957532 0
outer loop
vertex -17.14251708984375 57.52265930175781 -6.976912975311279
vertex -16.80003547668457 56.64558029174805 0
vertex -16.80003547668457 56.64558029174805 -7.0737433433532715
endloop
endfacet
facet normal 0.7353999640529307 0.6776333026578226 0
outer loop
vertex -19.583654403686523 60.171897888183594 -6.684434413909912
vertex -17.14251708984375 57.52265930175781 0
vertex -17.14251708984375 57.52265930175781 -6.976912975311279
endloop
endfacet
facet normal 0.40233756255175596 0.9154913903253881 0
outer loop
vertex -20.540624618530273 60.592464447021484 -6.638003349304199
vertex -19.583654403686523 60.171897888183594 0
vertex -19.583654403686523 60.171897888183594 -6.684434413909912
endloop
endfacet
facet normal 1 0 0
outer loop
vertex -16.80003547668457 44.164485931396484 0
vertex -16.80003547668457 56.64558029174805 -7.0737433433532715
vertex -16.80003547668457 56.64558029174805 0
endloop
endfacet
facet normal 0.7353999640529307 0.6776333026578225 0
outer loop
vertex -19.583654403686523 60.171897888183594 -6.684434413909912
vertex -19.583654403686523 60.171897888183594 0
vertex -17.14251708984375 57.52265930175781 0
endloop
endfacet
facet normal 0.40233756255175596 0.9154913903253881 0
outer loop
vertex -20.540624618530273 60.592464447021484 -6.638003349304199
vertex -20.540624618530273 60.592464447021484 0
vertex -19.583654403686523 60.171897888183594 0
endloop
endfacet
facet normal 0.9315031896459446 0.3637331544957533 0
outer loop
vertex -17.14251708984375 57.52265930175781 -6.976912975311279
vertex -17.14251708984375 57.52265930175781 0
vertex -16.80003547668457 56.64558029174805 0
endloop
endfacet
facet normal 0 1 0
outer loop
vertex 24.359535217285156 42.70001983642578 0
vertex -15.335570335388184 42.70001983642578 -8.613347053527832
vertex -15.335570335388184 42.70001983642578 0
endloop
endfacet
facet normal 0 0.10973520400362867 -0.9939608568763068
outer loop
vertex 97.56993103027344 -63.69997787475586 -20.360017776489258
vertex 26.6444149017334 -63.69997787475586 -20.360017776489258
vertex 25.214614868164062 -62.40182876586914 -20.216699600219727
endloop
endfacet
facet normal -2.144325749534559e-8 0.10973402320668925 -0.9939609872378661
outer loop
vertex 97.56993103027344 -63.69997787475586 -20.360017776489258
vertex 25.214614868164062 -62.40182876586914 -20.216699600219727
vertex 24.98178482055664 -59.995182037353516 -19.951004028320312
endloop
endfacet
facet normal 1.741274948648903e-8 0.10973477534590542 -0.993960904200856
outer loop
vertex 97.56993103027344 -63.69997787475586 -20.360017776489258
vertex 24.98178482055664 -59.995182037353516 -19.951004028320312
vertex 23.553592681884766 -58.697269439697266 -19.80771255493164
endloop
endfacet
facet normal -0.6721994507860932 -0.7403701090420078 0
outer loop
vertex 26.6444149017334 -63.69997787475586 -20.360017776489258
vertex 25.214614868164062 -62.40182876586914 0
vertex 25.214614868164062 -62.40182876586914 -20.216699600219727
endloop
endfacet
facet normal -0.9953528383510978 -0.09629500083811905 0
outer loop
vertex 25.214614868164062 -62.40182876586914 -20.216699600219727
vertex 24.98178482055664 -59.995182037353516 0
vertex 24.98178482055664 -59.995182037353516 -19.951004028320312
endloop
endfacet
facet normal -0.6725468489326418 -0.7400545493345569 0
outer loop
vertex 23.553592681884766 -58.697269439697266 0
vertex 23.553592681884766 -58.697269439697266 -19.80771255493164
vertex 24.98178482055664 -59.995182037353516 -19.951004028320312
endloop
endfacet
facet normal 0 -1 0
outer loop
vertex 97.56993103027344 -63.69997787475586 -20.360017776489258
vertex 26.6444149017334 -63.69997787475586 0
vertex 26.6444149017334 -63.69997787475586 -20.360017776489258
endloop
endfacet
facet normal 2.7033500052358493e-8 0.10973435434688805 -0.9939609506796888
outer loop
vertex 97.56993103027344 -63.69997787475586 -20.360017776489258
vertex -15.335570335388184 42.70001983642578 -8.613347053527832
vertex 64.19996643066406 -9.850736618041992 -14.41500473022461
endloop
endfacet
facet normal 1.540879856773814e-8 0.10973434834653699 -0.9939609513421342
outer loop
vertex 91.19996643066406 -23.872356414794922 -15.963006019592285
vertex 97.56993103027344 -63.69997787475586 -20.360017776489258
vertex 65.65673828125 -11.313870429992676 -14.576536178588867
endloop
endfacet
facet normal -1.8521873744659455e-8 0.10973434298506848 -0.9939609519340461
outer loop
vertex 91.19996643066406 -23.872356414794922 -15.963006019592285
vertex 92.64576721191406 -25.333545684814453 -16.12432289123535
vertex 97.56993103027344 -63.69997787475586 -20.360017776489258
endloop
endfacet
facet normal 0 0.10973434533364462 -0.9939609516747608
outer loop
vertex 92.64576721191406 -25.333545684814453 -16.12432289123535
vertex 128.8163604736328 -63.69997787475586 -20.360017776489258
vertex 97.56993103027344 -63.69997787475586 -20.360017776489258
endloop
endfacet
facet normal 4.631501085582223e-7 0.10973477671821932 -0.9939609040492429
outer loop
vertex 92.64576721191406 -25.333545684814453 -16.12432289123535
vertex 130.27696228027344 -62.257415771484375 -20.200756072998047
vertex 128.8163604736328 -63.69997787475586 -20.360017776489258
endloop
endfacet
facet normal -1.8235481025473658e-8 0.10973429201878795 -0.9939609575607761
outer loop
vertex 92.64576721191406 -25.333545684814453 -16.12432289123535
vertex 130.71266174316406 -27.204296112060547 -16.330856323242188
vertex 130.27696228027344 -62.257415771484375 -20.200756072998047
endloop
endfacet
facet normal 0 -1 0
outer loop
vertex 97.56993103027344 -63.69997787475586 -20.360017776489258
vertex 128.8163604736328 -63.69997787475586 -20.360017776489258
vertex 128.8163604736328 -63.69997787475586 0
endloop
endfacet
facet normal 0.7026993893777206 -0.7114868713955153 0
outer loop
vertex 130.27696228027344 -62.257415771484375 -20.200756072998047
vertex 128.8163604736328 -63.69997787475586 0
vertex 128.8163604736328 -63.69997787475586 -20.360017776489258
endloop
endfacet
facet normal 0.9999227603346867 -0.012428731417998282 0
outer loop
vertex 130.71266174316406 -27.204296112060547 -16.330856323242188
vertex 130.27696228027344 -62.257415771484375 0
vertex 130.27696228027344 -62.257415771484375 -20.200756072998047
endloop
endfacet
facet normal 1.2304709966927577e-7 0.10973441312931986 -0.9939609441900364
outer loop
vertex 97.56993103027344 -63.69997787475586 -20.360017776489258
vertex 64.19996643066406 -9.850736618041992 -14.41500473022461
vertex 65.65673828125 -11.313870429992676 -14.576536178588867
endloop
endfacet
facet normal 7.019899222543867e-9 0.10973479973862163 -0.9939609015078633
outer loop
vertex 92.64576721191406 -25.333545684814453 -16.12432289123535
vertex 129.26324462890625 -25.721145629882812 -16.1671142578125
vertex 130.71266174316406 -27.204296112060547 -16.330856323242188
endloop
endfacet
facet normal 1.3022768061030295e-9 0.10973495768166049 -0.9939608840706983
outer loop
vertex 23.553592681884766 -58.697269439697266 -19.80771255493164
vertex -87.45771026611328 -58.592918395996094 -19.796192169189453
vertex -88.41600036621094 -58.172306060791016 -19.749755859375
endloop
endfacet
facet normal 1 0 0
outer loop
vertex 91.19996643066406 -15.354419708251953 -15.02261734008789
vertex 91.19996643066406 -23.872356414794922 0
vertex 91.19996643066406 -23.872356414794922 -15.963006019592285
endloop
endfacet
facet normal -3.642801620523588e-8 0.1097341730709439 -0.9939609706927304
outer loop
vertex 91.19996643066406 -15.354419708251953 -15.02261734008789
vertex 65.65673828125 -11.313870429992676 -14.576536178588867
vertex 87.46394348144531 -11.408841133117676 -14.587021827697754
endloop
endfacet
facet normal -1.9641039998383798e-8 0.10973427791564824 -0.9939609591177768
outer loop
vertex 91.19996643066406 -15.354419708251953 -15.02261734008789
vertex 91.19996643066406 -23.872356414794922 -15.963006019592285
vertex 65.65673828125 -11.313870429992676 -14.576536178588867
endloop
endfacet
facet normal 0.0000013587738639369745 0.10973574740451907 -0.9939607968827167
outer loop
vertex 88.41744232177734 -11.829289436340332 -14.633439064025879
vertex 90.85748291015625 -14.477338790893555 -14.925786972045898
vertex 87.46394348144531 -11.408841133117676 -14.587021827697754
endloop
endfacet
facet normal -3.5413812123235816e-7 0.1097338758574348 -0.9939610035052581
outer loop
vertex 90.85748291015625 -14.477338790893555 -14.925786972045898
vertex 91.19996643066406 -15.354419708251953 -15.02261734008789
vertex 87.46394348144531 -11.408841133117676 -14.587021827697754
endloop
endfacet
facet normal 0.01058451482763073 0.9999439824539492 0
outer loop
vertex 92.64576721191406 -25.333545684814453 -16.12432289123535
vertex 129.26324462890625 -25.721145629882812 0
vertex 129.26324462890625 -25.721145629882812 -16.1671142578125
endloop
endfacet
facet normal 0.7151933254334454 0.6989266823175733 0
outer loop
vertex 129.26324462890625 -25.721145629882812 -16.1671142578125
vertex 130.71266174316406 -27.204296112060547 0
vertex 130.71266174316406 -27.204296112060547 -16.330856323242188
endloop
endfacet
facet normal -0.6721994507860933 -0.740370109042008 0
outer loop
vertex 25.214614868164062 -62.40182876586914 0
vertex 26.6444149017334 -63.69997787475586 -20.360017776489258
vertex 26.6444149017334 -63.69997787475586 0
endloop
endfacet
facet normal -0.9953528383510978 -0.09629500083811905 0
outer loop
vertex 24.98178482055664 -59.995182037353516 0
vertex 25.214614868164062 -62.40182876586914 -20.216699600219727
vertex 25.214614868164062 -62.40182876586914 0
endloop
endfacet
facet normal -0.6725468489326418 -0.7400545493345569 0
outer loop
vertex 23.553592681884766 -58.697269439697266 0
vertex 24.98178482055664 -59.995182037353516 -19.951004028320312
vertex 24.98178482055664 -59.995182037353516 0
endloop
endfacet
facet normal 0 0 1
outer loop
vertex 24.98178482055664 -59.995182037353516 0
vertex 25.214614868164062 -62.40182876586914 0
vertex 91.19996643066406 -23.872356414794922 0
endloop
endfacet
facet normal 0 0 1
outer loop
vertex 23.553592681884766 -58.697269439697266 0
vertex 24.98178482055664 -59.995182037353516 0
vertex 91.19996643066406 -23.872356414794922 0
endloop
endfacet
facet normal 0 0 1
outer loop
vertex 25.214614868164062 -62.40182876586914 0
vertex 26.6444149017334 -63.69997787475586 0
vertex 91.19996643066406 -23.872356414794922 0
endloop
endfacet
facet normal 0 0 1
outer loop
vertex 91.19996643066406 -23.872356414794922 0
vertex 26.6444149017334 -63.69997787475586 0
vertex 92.64576721191406 -25.333545684814453 0
endloop
endfacet
facet normal 0 0 1
outer loop
vertex 23.553592681884766 -58.697269439697266 0
vertex 91.19996643066406 -23.872356414794922 0
vertex 91.19996643066406 -15.354419708251953 0
endloop
endfacet
facet normal 0.708645760546584 0.7055644450079336 0
outer loop
vertex 64.19996643066406 -9.850736618041992 -14.41500473022461
vertex 65.65673828125 -11.313870429992676 0
vertex 65.65673828125 -11.313870429992676 -14.576536178588867
endloop
endfacet
facet normal 1 0 0
outer loop
vertex 64.19996643066406 -6.164445400238037 -14.008034706115723
vertex 64.19996643066406 -9.850736618041992 0
vertex 64.19996643066406 -9.850736618041992 -14.41500473022461
endloop
endfacet
facet normal 0.7071077021365343 -0.7071058602353615 0
outer loop
vertex 65.6644287109375 -4.699979305267334 -13.846356391906738
vertex 64.19996643066406 -6.164445400238037 0
vertex 64.19996643066406 -6.164445400238037 -14.008034706115723
endloop
endfacet
facet normal 0 -1 0
outer loop
vertex 69.14552307128906 -4.699979305267334 -13.846356391906738
vertex 65.6644287109375 -4.699979305267334 0
vertex 65.6644287109375 -4.699979305267334 -13.846356391906738
endloop
endfacet
facet normal 0.3637300241131267 -0.9315044119909814 0
outer loop
vertex 70.0226058959961 -4.357499599456787 -13.80854606628418
vertex 69.14552307128906 -4.699979305267334 0
vertex 69.14552307128906 -4.699979305267334 -13.846356391906738
endloop
endfacet
facet normal 0.6776346046469158 -0.7353987643347099 0
outer loop
vertex 72.67121124267578 -1.9169371128082275 -13.539105415344238
vertex 70.0226058959961 -4.357499599456787 0
vertex 70.0226058959961 -4.357499599456787 -13.80854606628418
endloop
endfacet
facet normal 0.9152279838821563 -0.4029363938874266 0
outer loop
vertex 72.67121124267578 -1.9169371128082275 0
vertex 72.67121124267578 -1.9169371128082275 -13.539105415344238
vertex 73.09172058105469 -0.9617940187454224 -13.433656692504883
endloop
endfacet
facet normal 0 0 1
outer loop
vertex 64.19996643066406 -9.850736618041992 0
vertex 23.553592681884766 -58.697269439697266 0
vertex 65.65673828125 -11.313870429992676 0
endloop
endfacet
facet normal 0 0 1
outer loop
vertex 87.46394348144531 -11.408841133117676 0
vertex 65.65673828125 -11.313870429992676 0
vertex 23.553592681884766 -58.697269439697266 0
endloop
endfacet
facet normal 0 0 1
outer loop
vertex 87.46394348144531 -11.408841133117676 0
vertex 23.553592681884766 -58.697269439697266 0
vertex 88.41744232177734 -11.829289436340332 0
endloop
endfacet
facet normal 0 0 1
outer loop
vertex 88.41744232177734 -11.829289436340332 0
vertex 23.553592681884766 -58.697269439697266 0
vertex 90.85748291015625 -14.477338790893555 0
endloop
endfacet
facet normal 0 0 1
outer loop
vertex 90.85748291015625 -14.477338790893555 0
vertex 23.553592681884766 -58.697269439697266 0
vertex 91.19996643066406 -15.354419708251953 0
endloop
endfacet
facet normal 0.7086457605465841 0.7055644450079337 0
outer loop
vertex 64.19996643066406 -9.850736618041992 -14.41500473022461
vertex 64.19996643066406 -9.850736618041992 0
vertex 65.65673828125 -11.313870429992676 0
endloop
endfacet
facet normal 0.004354973581045643 0.9999905170575911 0
outer loop
vertex 87.46394348144531 -11.408841133117676 0
vertex 65.65673828125 -11.313870429992676 -14.576536178588867
vertex 65.65673828125 -11.313870429992676 0
endloop
endfacet
facet normal 1 0 0
outer loop
vertex 64.19996643066406 -6.164445400238037 -14.008034706115723
vertex 64.19996643066406 -6.164445400238037 0
vertex 64.19996643066406 -9.850736618041992 0
endloop
endfacet
facet normal 0.7071077021365342 -0.7071058602353615 0
outer loop
vertex 65.6644287109375 -4.699979305267334 -13.846356391906738
vertex 65.6644287109375 -4.699979305267334 0
vertex 64.19996643066406 -6.164445400238037 0
endloop
endfacet
facet normal 0 -1 0
outer loop
vertex 65.6644287109375 -4.699979305267334 0
vertex 69.14552307128906 -4.699979305267334 -13.846356391906738
vertex 69.14552307128906 -4.699979305267334 0
endloop
endfacet
facet normal 0.3637300241131267 -0.9315044119909814 0
outer loop
vertex 70.0226058959961 -4.357499599456787 -13.80854606628418
vertex 70.0226058959961 -4.357499599456787 0
vertex 69.14552307128906 -4.699979305267334 0
endloop
endfacet
facet normal 0.6776346046469158 -0.7353987643347097 0
outer loop
vertex 72.67121124267578 -1.9169371128082275 -13.539105415344238
vertex 72.67121124267578 -1.9169371128082275 0
vertex 70.0226058959961 -4.357499599456787 0
endloop
endfacet
facet normal 0 -1 0
outer loop
vertex 128.8163604736328 -63.69997787475586 0
vertex 26.6444149017334 -63.69997787475586 0
vertex 97.56993103027344 -63.69997787475586 -20.360017776489258
endloop
endfacet
facet normal 0.7026993893777206 -0.7114868713955154 0
outer loop
vertex 130.27696228027344 -62.257415771484375 -20.200756072998047
vertex 130.27696228027344 -62.257415771484375 0
vertex 128.8163604736328 -63.69997787475586 0
endloop
endfacet
facet normal 0.9999227603346866 -0.01242873141799828 0
outer loop
vertex 130.27696228027344 -62.257415771484375 0
vertex 130.71266174316406 -27.204296112060547 -16.330856323242188
vertex 130.71266174316406 -27.204296112060547 0
endloop
endfacet
facet normal 0 0 1
outer loop
vertex 92.64576721191406 -25.333545684814453 0
vertex 26.6444149017334 -63.69997787475586 0
vertex 128.8163604736328 -63.69997787475586 0
endloop
endfacet
facet normal 0 0 1
outer loop
vertex 92.64576721191406 -25.333545684814453 0
vertex 128.8163604736328 -63.69997787475586 0
vertex 130.27696228027344 -62.257415771484375 0
endloop
endfacet
facet normal 0 0 1
outer loop
vertex 92.64576721191406 -25.333545684814453 0
vertex 130.27696228027344 -62.257415771484375 0
vertex 129.26324462890625 -25.721145629882812 0
endloop
endfacet
facet normal 0 0 1
outer loop
vertex 129.26324462890625 -25.721145629882812 0
vertex 130.27696228027344 -62.257415771484375 0
vertex 130.71266174316406 -27.204296112060547 0
endloop
endfacet
facet normal 0.7108399732492292 0.7033537747329114 0
outer loop
vertex 91.19996643066406 -23.872356414794922 -15.963006019592285
vertex 91.19996643066406 -23.872356414794922 0
vertex 92.64576721191406 -25.333545684814453 0
endloop
endfacet
facet normal 0.004354973581045643 0.9999905170575911 0
outer loop
vertex 65.65673828125 -11.313870429992676 -14.576536178588867
vertex 87.46394348144531 -11.408841133117676 0
vertex 87.46394348144531 -11.408841133117676 -14.587021827697754
endloop
endfacet
facet normal 0.4034691431536224 0.9149932516269624 0
outer loop
vertex 87.46394348144531 -11.408841133117676 -14.587021827697754
vertex 88.41744232177734 -11.829289436340332 0
vertex 88.41744232177734 -11.829289436340332 -14.633439064025879
endloop
endfacet
facet normal 0.9315027713048113 0.36373422584554277 0
outer loop
vertex 90.85748291015625 -14.477338790893555 -14.925786972045898
vertex 91.19996643066406 -15.354419708251953 0
vertex 91.19996643066406 -15.354419708251953 -15.02261734008789
endloop
endfacet
facet normal 0.7354000899028753 0.6776331660794379 0
outer loop
vertex 88.41744232177734 -11.829289436340332 -14.633439064025879
vertex 90.85748291015625 -14.477338790893555 0
vertex 90.85748291015625 -14.477338790893555 -14.925786972045898
endloop
endfacet
facet normal 0.01058451482763073 0.9999439824539491 0
outer loop
vertex 129.26324462890625 -25.721145629882812 0
vertex 92.64576721191406 -25.333545684814453 -16.12432289123535
vertex 92.64576721191406 -25.333545684814453 0
endloop
endfacet
facet normal 0.7151933254334454 0.6989266823175733 0
outer loop
vertex 129.26324462890625 -25.721145629882812 -16.1671142578125
vertex 129.26324462890625 -25.721145629882812 0
vertex 130.71266174316406 -27.204296112060547 0
endloop
endfacet
facet normal 1 0 0
outer loop
vertex 91.19996643066406 -23.872356414794922 0
vertex 91.19996643066406 -15.354419708251953 -15.02261734008789
vertex 91.19996643066406 -15.354419708251953 0
endloop
endfacet
facet normal 0.4034691431536224 0.9149932516269624 0
outer loop
vertex 87.46394348144531 -11.408841133117676 -14.587021827697754
vertex 87.46394348144531 -11.408841133117676 0
vertex 88.41744232177734 -11.829289436340332 0
endloop
endfacet
facet normal 0.9315027713048114 0.3637342258455428 0
outer loop
vertex 90.85748291015625 -14.477338790893555 -14.925786972045898
vertex 90.85748291015625 -14.477338790893555 0
vertex 91.19996643066406 -15.354419708251953 0
endloop
endfacet
facet normal 0.7354000899028752 0.6776331660794378 0
outer loop
vertex 88.41744232177734 -11.829289436340332 -14.633439064025879
vertex 88.41744232177734 -11.829289436340332 0
vertex 90.85748291015625 -14.477338790893555 0
endloop
endfacet
facet normal -5.804302856352594e-8 0.10973422713413351 -0.9939609647241039
outer loop
vertex -15.335570335388184 42.70001983642578 -8.613347053527832
vertex 64.19996643066406 -6.164445400238037 -14.008034706115723
vertex 64.19996643066406 -9.850736618041992 -14.41500473022461
endloop
endfacet
facet normal 0 0.10973432047176646 -0.9939609544195384
outer loop
vertex -15.335570335388184 42.70001983642578 -8.613347053527832
vertex 24.359535217285156 42.70001983642578 -8.613347053527832
vertex 64.19996643066406 -6.164445400238037 -14.008034706115723
endloop
endfacet
facet normal -9.790767777834818e-8 0.10973424160640766 -0.993960963126348
outer loop
vertex 24.359535217285156 42.70001983642578 -8.613347053527832
vertex 65.6644287109375 -4.699979305267334 -13.846356391906738
vertex 64.19996643066406 -6.164445400238037 -14.008034706115723
endloop
endfacet
facet normal 0 0.10973432589689712 -0.9939609538205983
outer loop
vertex 24.359535217285156 42.70001983642578 -8.613347053527832
vertex 69.14552307128906 -4.699979305267334 -13.846356391906738
vertex 65.6644287109375 -4.699979305267334 -13.846356391906738
endloop
endfacet
facet normal 1.7296061772281164e-7 0.1097344873512253 -0.9939609359958438
outer loop
vertex 24.359535217285156 42.70001983642578 -8.613347053527832
vertex 70.0226058959961 -4.357499599456787 -13.80854606628418
vertex 69.14552307128906 -4.699979305267334 -13.846356391906738
endloop
endfacet
facet normal 3.5670054810776718e-9 0.10973432495656238 -0.9939609539244123
outer loop
vertex 24.359535217285156 42.70001983642578 -8.613347053527832
vertex 72.67121124267578 -1.9169371128082275 -13.539105415344238
vertex 70.0226058959961 -4.357499599456787 -13.80854606628418
endloop
endfacet
facet normal -4.525269861363178e-8 0.10973427273066015 -0.9939609596902039
outer loop
vertex 24.359535217285156 42.70001983642578 -8.613347053527832
vertex 73.09172058105469 -0.9617940187454224 -13.433656692504883
vertex 72.67121124267578 -1.9169371128082275 -13.539105415344238
endloop
endfacet
facet normal -1.8536804937592627e-8 0.10973430218996344 -0.9939609564378681
outer loop
vertex 24.359535217285156 42.70001983642578 -8.613347053527832
vertex 73.1897964477539 29.84117889404297 -10.032977104187012
vertex 73.09172058105469 -0.9617940187454224 -13.433656692504883
endloop
endfacet
facet normal 0.9999949311931348 -0.003183957920206936 0
outer loop
vertex 73.1897964477539 29.84117889404297 -10.032977104187012
vertex 73.09172058105469 -0.9617940187454224 0
vertex 73.09172058105469 -0.9617940187454224 -13.433656692504883
endloop
endfacet
facet normal 0 0 1
outer loop
vertex 73.09172058105469 -0.9617940187454224 0
vertex 25.821884155273438 44.1523323059082 0
vertex 24.359535217285156 42.70001983642578 0
endloop
endfacet
facet normal 0.9152279838821562 -0.4029363938874266 0
outer loop
vertex 73.09172058105469 -0.9617940187454224 -13.433656692504883
vertex 73.09172058105469 -0.9617940187454224 0
vertex 72.67121124267578 -1.9169371128082275 0
endloop
endfacet
facet normal 0 0 1
outer loop
vertex 24.359535217285156 42.70001983642578 0
vertex 65.6644287109375 -4.699979305267334 0
vertex 69.14552307128906 -4.699979305267334 0
endloop
endfacet
facet normal 0 0 1
outer loop
vertex 24.359535217285156 42.70001983642578 0
vertex 69.14552307128906 -4.699979305267334 0
vertex 70.0226058959961 -4.357499599456787 0
endloop
endfacet
facet normal 0 0 1
outer loop
vertex 24.359535217285156 42.70001983642578 0
vertex 70.0226058959961 -4.357499599456787 0
vertex 72.67121124267578 -1.9169371128082275 0
endloop
endfacet
facet normal 0 0 1
outer loop
vertex 24.359535217285156 42.70001983642578 0
vertex 72.67121124267578 -1.9169371128082275 0
vertex 73.09172058105469 -0.9617940187454224 0
endloop
endfacet
facet normal 0.9999949311931349 -0.003183957920206936 0
outer loop
vertex 73.09172058105469 -0.9617940187454224 0
vertex 73.1897964477539 29.84117889404297 -10.032977104187012
vertex 73.1897964477539 29.84117889404297 0
endloop
endfacet
facet normal 0 0 1
outer loop
vertex 25.821884155273438 44.1523323059082 0
vertex 73.09172058105469 -0.9617940187454224 0
vertex 73.1897964477539 29.84117889404297 0
endloop
endfacet
facet normal -5.47856880102547e-8 0.10973416619572679 -0.9939609714517595
outer loop
vertex 24.359535217285156 42.70001983642578 -8.613347053527832
vertex 25.821884155273438 44.1523323059082 -8.453010559082031
vertex 73.1897964477539 29.84117889404297 -10.032977104187012
endloop
endfacet
facet normal -1.746259064962461e-8 0.10973428824239753 -0.9939609579776933
outer loop
vertex 25.821884155273438 44.1523323059082 -8.453010559082031
vertex 25.91016960144043 56.96866989135742 -7.038074016571045
vertex 73.1897964477539 29.84117889404297 -10.032977104187012
endloop
endfacet
facet normal -0.7046677220410155 0.7095374560328201 0
outer loop
vertex 24.359535217285156 42.70001983642578 -8.613347053527832
vertex 25.821884155273438 44.1523323059082 0
vertex 25.821884155273438 44.1523323059082 -8.453010559082031
endloop
endfacet
facet normal -4.014698775893715e-8 0.10973424918257141 -0.9939609622899361
outer loop
vertex 25.91016960144043 56.96866989135742 -7.038074016571045
vertex 26.330488204956055 57.918617248535156 -6.933198928833008
vertex 73.1897964477539 29.84117889404297 -10.032977104187012
endloop
endfacet
facet normal 1.9477010961685616e-9 0.10973431858974284 -0.9939609546273157
outer loop
vertex 26.330488204956055 57.918617248535156 -6.933198928833008
vertex 28.978219985961914 60.358367919921875 -6.663847923278809
vertex 73.1897964477539 29.84117889404297 -10.032977104187012
endloop
endfacet
facet normal 6.800449339951412e-8 0.1097344131367094 -0.9939609441892259
outer loop
vertex 28.978219985961914 60.358367919921875 -6.663847923278809
vertex 29.857892990112305 60.700904846191406 -6.626031398773193
vertex 73.1897964477539 29.84117889404297 -10.032977104187012
endloop
endfacet
facet normal -0.999976275071931 0.006888344740650646 0
outer loop
vertex 25.821884155273438 44.1523323059082 -8.453010559082031
vertex 25.91016960144043 56.96866989135742 0
vertex 25.91016960144043 56.96866989135742 -7.038074016571045
endloop
endfacet
facet normal -3.418735127541486e-8 0.10973427137119834 -0.9939609598402903
outer loop
vertex 29.857892990112305 60.700904846191406 -6.626031398773193
vertex 74.65328979492188 31.300020217895508 -9.871919631958008
vertex 73.1897964477539 29.84117889404297 -10.032977104187012
endloop
endfacet
facet normal 0 0.10973432283206488 -0.993960954158959
outer loop
vertex 29.857892990112305 60.700904846191406 -6.626031398773193
vertex 87.14552307128906 31.300020217895508 -9.871919631958008
vertex 74.65328979492188 31.300020217895508 -9.871919631958008
endloop
endfacet
facet normal 1.3515370732535006e-7 0.1097345830079629 -0.9939609254352256
outer loop
vertex 29.857892990112305 60.700904846191406 -6.626031398773193
vertex 88.0226058959961 31.642499923706055 -9.83410930633545
vertex 87.14552307128906 31.300020217895508 -9.871919631958008
endloop
endfacet
facet normal -3.26061560001853e-8 0.1097342512552184 -0.9939609620611141
outer loop
vertex 29.857892990112305 60.700904846191406 -6.626031398773193
vertex 90.6702651977539 34.082183837890625 -9.564765930175781
vertex 88.0226058959961 31.642499923706055 -9.83410930633545
endloop
endfacet
facet normal 2.7501927596513306e-7 0.109734945584738 -0.9939608854061808
outer loop
vertex 29.857892990112305 60.700904846191406 -6.626031398773193
vertex 91.09066772460938 35.03453826904297 -9.459624290466309
vertex 90.6702651977539 34.082183837890625 -9.564765930175781
endloop
endfacet
facet normal 0.7059802533701028 -0.7082315171266282 0
outer loop
vertex 74.65328979492188 31.300020217895508 -9.871919631958008
vertex 73.1897964477539 29.84117889404297 0
vertex 73.1897964477539 29.84117889404297 -10.032977104187012
endloop
endfacet
facet normal -4.614939138649618e-9 0.10973428648902157 -0.9939609581712682
outer loop
vertex 29.857892990112305 60.700904846191406 -6.626031398773193
vertex 91.20238494873047 56.63599395751953 -7.074801921844482
vertex 91.09066772460938 35.03453826904297 -9.459624290466309
endloop
endfacet
facet normal -1.2454246875647576e-9 0.10973433672681034 -0.9939609526249646
outer loop
vertex 29.857892990112305 60.700904846191406 -6.626031398773193
vertex 90.85974884033203 57.520198822021484 -6.977184772491455
vertex 91.20238494873047 56.63599395751953 -7.074801921844482
endloop
endfacet
facet normal -1.5753059551538478e-9 0.10973433047629512 -0.9939609533150281
outer loop
vertex 29.857892990112305 60.700904846191406 -6.626031398773193
vertex 88.41634368896484 60.171897888183594 -6.684434413909912
vertex 90.85974884033203 57.520198822021484 -6.977184772491455
endloop
endfacet
facet normal 4.707118565896971e-11 0.10973450790286125 -0.9939609337269333
outer loop
vertex 29.857892990112305 60.700904846191406 -6.626031398773193
vertex 87.4593734741211 60.592464447021484 -6.638003349304199
vertex 88.41634368896484 60.171897888183594 -6.684434413909912
endloop
endfacet
facet normal -0.7046677220410154 0.70953745603282 0
outer loop
vertex 25.821884155273438 44.1523323059082 0
vertex 24.359535217285156 42.70001983642578 -8.613347053527832
vertex 24.359535217285156 42.70001983642578 0
endloop
endfacet
facet normal 0 0 1
outer loop
vertex 25.91016960144043 56.96866989135742 0
vertex 25.821884155273438 44.1523323059082 0
vertex 73.1897964477539 29.84117889404297 0
endloop
endfacet
facet normal -0.9999762750719309 0.006888344740650646 0
outer loop
vertex 25.91016960144043 56.96866989135742 0
vertex 25.821884155273438 44.1523323059082 -8.453010559082031
vertex 25.821884155273438 44.1523323059082 0
endloop
endfacet
facet normal -0.914482060761753 0.4046264456816157 0
outer loop
vertex 25.91016960144043 56.96866989135742 -7.038074016571045
vertex 26.330488204956055 57.918617248535156 0
vertex 26.330488204956055 57.918617248535156 -6.933198928833008
endloop
endfacet
facet normal -0.677633573238864 0.735399714726304 0
outer loop
vertex 26.330488204956055 57.918617248535156 -6.933198928833008
vertex 28.978219985961914 60.358367919921875 0
vertex 28.978219985961914 60.358367919921875 -6.663847923278809
endloop
endfacet
facet normal -0.36285281312289025 0.9318464658991872 0
outer loop
vertex 28.978219985961914 60.358367919921875 -6.663847923278809
vertex 29.857892990112305 60.700904846191406 0
vertex 29.857892990112305 60.700904846191406 -6.626031398773193
endloop
endfacet
facet normal -0.914482060761753 0.4046264456816157 0
outer loop
vertex 26.330488204956055 57.918617248535156 0
vertex 25.91016960144043 56.96866989135742 -7.038074016571045
vertex 25.91016960144043 56.96866989135742 0
endloop
endfacet
facet normal -0.6776335732388639 0.7353997147263039 0
outer loop
vertex 28.978219985961914 60.358367919921875 0
vertex 26.330488204956055 57.918617248535156 -6.933198928833008
vertex 26.330488204956055 57.918617248535156 0
endloop
endfacet
facet normal -0.3628528131228902 0.9318464658991871 0
outer loop
vertex 29.857892990112305 60.700904846191406 0
vertex 28.978219985961914 60.358367919921875 -6.663847923278809
vertex 28.978219985961914 60.358367919921875 0
endloop
endfacet
facet normal 0 0 1
outer loop
vertex 26.330488204956055 57.918617248535156 0
vertex 25.91016960144043 56.96866989135742 0
vertex 73.1897964477539 29.84117889404297 0
endloop
endfacet
facet normal 0 0 1
outer loop
vertex 28.978219985961914 60.358367919921875 0
vertex 26.330488204956055 57.918617248535156 0
vertex 73.1897964477539 29.84117889404297 0
endloop
endfacet
facet normal 0 0 1
outer loop
vertex 29.857892990112305 60.700904846191406 0
vertex 28.978219985961914 60.358367919921875 0
vertex 73.1897964477539 29.84117889404297 0
endloop
endfacet
facet normal 0.7059802533701028 -0.7082315171266282 0
outer loop
vertex 74.65328979492188 31.300020217895508 -9.871919631958008
vertex 74.65328979492188 31.300020217895508 0
vertex 73.1897964477539 29.84117889404297 0
endloop
endfacet
facet normal 0 0 1
outer loop
vertex 73.1897964477539 29.84117889404297 0
vertex 74.65328979492188 31.300020217895508 0
vertex 29.857892990112305 60.700904846191406 0
endloop
endfacet
facet normal 0 0 1
outer loop
vertex 74.65328979492188 31.300020217895508 0
vertex 87.14552307128906 31.300020217895508 0
vertex 29.857892990112305 60.700904846191406 0
endloop
endfacet
facet normal 0 0 1
outer loop
vertex 87.14552307128906 31.300020217895508 0
vertex 88.0226058959961 31.642499923706055 0
vertex 29.857892990112305 60.700904846191406 0
endloop
endfacet
facet normal 0 0 1
outer loop
vertex 88.0226058959961 31.642499923706055 0
vertex 90.6702651977539 34.082183837890625 0
vertex 29.857892990112305 60.700904846191406 0
endloop
endfacet
facet normal 0 0 1
outer loop
vertex 90.6702651977539 34.082183837890625 0
vertex 91.09066772460938 35.03453826904297 0
vertex 29.857892990112305 60.700904846191406 0
endloop
endfacet
facet normal 0.0018825940946911167 0.9999982279181672 0
outer loop
vertex 29.857892990112305 60.700904846191406 -6.626031398773193
vertex 87.4593734741211 60.592464447021484 0
vertex 87.4593734741211 60.592464447021484 -6.638003349304199
endloop
endfacet
facet normal 0.001882594094691117 0.9999982279181673 0
outer loop
vertex 87.4593734741211 60.592464447021484 0
vertex 29.857892990112305 60.700904846191406 -6.626031398773193
vertex 29.857892990112305 60.700904846191406 0
endloop
endfacet
facet normal 0 0 1
outer loop
vertex 91.09066772460938 35.03453826904297 0
vertex 91.20238494873047 56.63599395751953 0
vertex 29.857892990112305 60.700904846191406 0
endloop
endfacet
facet normal 0 0 1
outer loop
vertex 91.20238494873047 56.63599395751953 0
vertex 90.85974884033203 57.520198822021484 0
vertex 29.857892990112305 60.700904846191406 0
endloop
endfacet
facet normal 0 0 1
outer loop
vertex 87.4593734741211 60.592464447021484 0
vertex 29.857892990112305 60.700904846191406 0
vertex 90.85974884033203 57.520198822021484 0
endloop
endfacet
facet normal 0 -1 0
outer loop
vertex 87.14552307128906 31.300020217895508 -9.871919631958008
vertex 74.65328979492188 31.300020217895508 0
vertex 74.65328979492188 31.300020217895508 -9.871919631958008
endloop
endfacet
facet normal 0.3637300241131267 -0.9315044119909814 0
outer loop
vertex 88.0226058959961 31.642499923706055 -9.83410930633545
vertex 87.14552307128906 31.300020217895508 0
vertex 87.14552307128906 31.300020217895508 -9.871919631958008
endloop
endfacet
facet normal 0.6776335775578387 -0.7353997107465876 0
outer loop
vertex 90.6702651977539 34.082183837890625 -9.564765930175781
vertex 88.0226058959961 31.642499923706055 0
vertex 88.0226058959961 31.642499923706055 -9.83410930633545
endloop
endfacet
facet normal 0.9148304556254818 -0.4038381327463684 0
outer loop
vertex 91.09066772460938 35.03453826904297 -9.459624290466309
vertex 90.6702651977539 34.082183837890625 0
vertex 90.6702651977539 34.082183837890625 -9.564765930175781
endloop
endfacet
facet normal 0.9999866267942171 -0.005171676007152683 0
outer loop
vertex 91.20238494873047 56.63599395751953 -7.074801921844482
vertex 91.09066772460938 35.03453826904297 0
vertex 91.09066772460938 35.03453826904297 -9.459624290466309
endloop
endfacet
facet normal 0 -1 0
outer loop
vertex 74.65328979492188 31.300020217895508 0
vertex 87.14552307128906 31.300020217895508 -9.871919631958008
vertex 87.14552307128906 31.300020217895508 0
endloop
endfacet
facet normal 0.3637300241131267 -0.9315044119909814 0
outer loop
vertex 88.0226058959961 31.642499923706055 -9.83410930633545
vertex 88.0226058959961 31.642499923706055 0
vertex 87.14552307128906 31.300020217895508 0
endloop
endfacet
facet normal 0.6776335775578387 -0.7353997107465876 0
outer loop
vertex 90.6702651977539 34.082183837890625 -9.564765930175781
vertex 90.6702651977539 34.082183837890625 0
vertex 88.0226058959961 31.642499923706055 0
endloop
endfacet
facet normal 0.9148304556254818 -0.4038381327463684 0
outer loop
vertex 91.09066772460938 35.03453826904297 -9.459624290466309
vertex 91.09066772460938 35.03453826904297 0
vertex 90.6702651977539 34.082183837890625 0
endloop
endfacet
facet normal 0.40233756255175596 0.9154913903253881 0
outer loop
vertex 87.4593734741211 60.592464447021484 -6.638003349304199
vertex 88.41634368896484 60.171897888183594 0
vertex 88.41634368896484 60.171897888183594 -6.684434413909912
endloop
endfacet
facet normal 0.7353998767365343 0.6776333974177263 0
outer loop
vertex 88.41634368896484 60.171897888183594 -6.684434413909912
vertex 90.85974884033203 57.520198822021484 0
vertex 90.85974884033203 57.520198822021484 -6.977184772491455
endloop
endfacet
facet normal 0.9324390764081008 0.36132723228011515 0
outer loop
vertex 90.85974884033203 57.520198822021484 -6.977184772491455
vertex 91.20238494873047 56.63599395751953 0
vertex 91.20238494873047 56.63599395751953 -7.074801921844482
endloop
endfacet
facet normal 0.40233756255175596 0.9154913903253881 0
outer loop
vertex 87.4593734741211 60.592464447021484 -6.638003349304199
vertex 87.4593734741211 60.592464447021484 0
vertex 88.41634368896484 60.171897888183594 0
endloop
endfacet
facet normal 0 0 1
outer loop
vertex 88.41634368896484 60.171897888183594 0
vertex 87.4593734741211 60.592464447021484 0
vertex 90.85974884033203 57.520198822021484 0
endloop
endfacet
facet normal 0.9999866267942171 -0.005171676007152684 0
outer loop
vertex 91.09066772460938 35.03453826904297 0
vertex 91.20238494873047 56.63599395751953 -7.074801921844482
vertex 91.20238494873047 56.63599395751953 0
endloop
endfacet
facet normal 0.9324390764081006 0.3613272322801151 0
outer loop
vertex 90.85974884033203 57.520198822021484 -6.977184772491455
vertex 90.85974884033203 57.520198822021484 0
vertex 91.20238494873047 56.63599395751953 0
endloop
endfacet
facet normal 0.7353998767365342 0.6776333974177263 0
outer loop
vertex 88.41634368896484 60.171897888183594 -6.684434413909912
vertex 88.41634368896484 60.171897888183594 0
vertex 90.85974884033203 57.520198822021484 0
endloop
endfacet
endsolid auto-kdk-case
